# xmcd
#
# Track frame offsets:
#	150
#	20366
#	41505
#	58567
#	77272
#	92264
#	109996
#	131000
#	153473
#	180445
#	200962
#	216373
#
# Disc length: 3199 seconds
#
# Revision: 1
# Processed by: cddbd v1.5.2PL0 Copyright (c) Steve Scherf et al.
# Submitted via: audiograbber 1.83.01
#
DISCID=9a0c7d0c
DTITLE=Tombstone Bullies - Seasons Of Mary
DYEAR=2010
DGENRE=Alternative Rock
TTITLE0=After The Tide
TTITLE1=Black Cat
TTITLE2=Home Away From Home
TTITLE3=Blue Avenue
TTITLE4=Strawberry Wine
TTITLE5=Jacksonville
TTITLE6=Seasons of Mary
TTITLE7=Georgia Blues
TTITLE8=Mary Got Away
TTITLE9=She's Getting Rid of Everything
TTITLE10=Crying in the Kitchen
TTITLE11=St. Charles is Gone
EXTD=Tombstone Bullies are Gabriel Siklosi and Michael T. Notarthomas. Drums by
EXTD=Chris Lippke, Bass by Matt Bowers. 
EXTT0=
EXTT1=
EXTT2=
EXTT3=
EXTT4=
EXTT5=
EXTT6=
EXTT7=
EXTT8=
EXTT9=
EXTT10=
EXTT11=
PLAYORDER=
